<svg xmlns="http://www.w3.org/2000/svg" width="25" height="25" fill="none" class="t-sociallinks__svg" viewBox="0 0 100 100"><path fill="#000" d="M83.18 17.589s7.4-2.886 6.783 4.122c-.205 2.886-2.055 12.986-3.494 23.91l-4.934 32.362s-.411 4.74-4.111 5.565c-3.7.824-9.251-2.886-10.279-3.71-.822-.618-15.418-9.894-20.557-14.429-1.44-1.237-3.084-3.71.205-6.596L68.38 38.201c2.466-2.474 4.933-8.245-5.345-1.237l-28.78 19.582s-3.29 2.061-9.457.206l-13.362-4.123s-4.934-3.091 3.495-6.183c20.557-9.688 45.842-19.582 68.25-28.857Z"/></svg>